<?xml version="1.0" encoding="UTF-8"?>
<svg width="200px" height="262px" viewBox="0 0 200 262" version="1.1" xmlns="http://www.w3.org/2000/svg" xmlns:xlink="http://www.w3.org/1999/xlink">
    <!-- Generator: Sketch 63.1 (92452) - https://sketch.com -->
    <title>Group 6</title>
    <desc>Created with Sketch.</desc>
    <defs>
        <path d="M148,197.608051 C135.525121,187.236892 119.490913,181 102,181 L102,181 L98,181 L98,162.610951 C115.530782,154.282984 128.048193,137.114792 129.791419,116.867187 C135.569129,116.002364 140,111.018625 140,105 L140,105 L140,92 C140,87.3536213 137.359271,83.3240177 133.496777,81.3301515 C132.723933,81.0500337 131.951808,80.748163 131.180891,80.4262497 C130.794819,80.3202581 130.400778,80.2331546 130,80.1659169 L130,80.1659169 L130.000458,79.9172528 C117.224481,74.2339715 104.877985,63.0706967 96.1104311,47.8848473 C93.1752556,42.8009742 90.8310687,37.5951441 89.0661426,32.3970356 C80.4313947,42.9409152 67.7445474,53.6023901 52.3415164,62.4953343 C42.777598,68.0170651 33.1467898,72.2910056 24,75.2659587 L24.0003852,137.246608 C29.6019576,148.318362 38.7728825,157.277529 50,162.610951 L50,162.610951 L50,181 L46,181 C38.3273639,181 30.9350359,182.200142 24.0004995,184.422941 L24,230 C24,244.105888 13.5691766,255.775526 0,257.716445 L0,74 C0,33.1309285 33.1309285,0 74,0 C114.869071,0 148,33.1309285 148,74 Z" id="path-1"></path>
        <path d="M67,182.347625 C67,194.210718 81.9984609,203.827654 100.5,203.827654 C119.001539,203.827654 134,194.210718 134,182.347625 C134,181.994757 133.98673,181.643876 133.960492,181.295176 C170.936371,184.32489 200,215.29422 200,253.051724 L200,262 L0,262 L0,253.051724 C-4.66584974e-15,214.952169 29.5925972,183.764336 67.0465686,181.219447 C67.0151943,181.59473 67,181.97004 67,182.347625 Z" id="path-3"></path>
    </defs>
    <g id="Page-1" stroke="none" stroke-width="1" fill="none" fill-rule="evenodd">
        <g id="Group-6">
            <path d="M174,197.608051 C161.525121,187.236892 145.490913,181 128,181 L128,181 L124,181 L124,162.610951 C141.530782,154.282984 154.048193,137.114792 155.791419,116.867187 C161.569129,116.002364 166,111.018625 166,105 L166,105 L166,92 C166,87.3536213 163.359271,83.3240177 159.496777,81.3301515 C164.367935,83.1064062 169.259898,84.0719054 174,84.1482318 L174,84.1482318 Z M49.999376,137.244613 C55.6008561,148.317285 64.7722083,157.277209 76,162.610951 L76,162.610951 L76,181 L72,181 C64.3269953,181 56.9343257,182.200257 49.9995003,184.423262 Z M155.999466,79.9168114 C156.392897,80.0918351 156.786736,80.261662 157.180891,80.4262497 C156.794819,80.3202581 156.400778,80.2331546 156,80.1659169 L156,80.1659169 Z" id="Shadow" fill="#C1C1C1"></path>
            <path d="M100,18 C130.927946,18 156,43.072054 156,74 L156.000809,80.1660527 C161.675838,81.1185422 166,86.05429 166,92 L166,105 C166,111.018777 161.568906,116.002616 155.790982,116.867253 C154.048207,137.114429 141.531251,154.282329 124.001014,162.610469 L124,181 L128,181 C167.764502,181 200,213.235498 200,253 L200,262 L0,262 L0,253 C-4.86974701e-15,213.235498 32.235498,181 72,181 L76,181 L75.9999836,162.610943 C58.4692242,154.28298 45.9518263,137.114813 44.208585,116.867236 C38.4310943,116.002616 34,111.018777 34,105 L34,92 C34,86.053942 38.3246685,81.1179645 44.0001873,80.1658855 L44,74 C44,43.072054 69.072054,18 100,18 Z" id="Combined-Shape" fill="#E6E6E6"></path>
            <g id="Hair" transform="translate(26.000000, 0.000000)">
                <mask id="mask-2" fill="white">
                    <use xlink:href="#path-1"></use>
                </mask>
                <use id="Mask-Hair" fill="#C1C1C1" xlink:href="#path-1"></use>
            </g>
            <path d="M86,124 C86,131.731986 92.2680135,138 100,138 L100,138 C107.731986,138 114,131.731986 114,124" id="Mouth" fill="#C1C1C1"></path>
            <mask id="mask-4" fill="white">
                <use xlink:href="#path-3"></use>
            </mask>
            <use id="Clothes" fill-opacity="0.2" fill="#C1C1C1" xlink:href="#path-3"></use>
            <g id="Shadowy" opacity="0.599999964" mask="url(#mask-4)" fill="#000000" fill-opacity="0.16">
                <g transform="translate(60.000000, 156.000000)" id="Hola-ðŸ‘‹ðŸ¼">
                    <ellipse cx="40.5" cy="27.8476251" rx="39.6351047" ry="26.9138272"></ellipse>
                </g>
            </g>
        </g>
    </g>
</svg>