<?xml version="1.0" encoding="UTF-8"?>
<svg width="200px" height="262px" viewBox="0 0 200 262" version="1.1" xmlns="http://www.w3.org/2000/svg" xmlns:xlink="http://www.w3.org/1999/xlink">
    <!-- Generator: Sketch 63.1 (92452) - https://sketch.com -->
    <title>Group 4</title>
    <desc>Created with Sketch.</desc>
    <defs>
        <path d="M100,0 C137.555563,0 168.576875,27.9764505 173.360189,64.2256031 C173.623924,66.2242503 173.827836,73.3570149 173.971924,85.6238969 C173.991377,85.7287854 174,85.8108494 174,85.874706 L174,140 C174,157.673112 159.673112,172 142,172 L124,172 L124,162.610951 C141.530782,154.282984 154.048193,137.114792 155.791419,116.867187 C161.569129,116.002364 166,111.018625 166,105 L166,92 C166,90.4838798 165.718835,88.5133034 165.205802,86.4028139 C147.318197,81.0191367 129.700008,64.6930439 119.444252,41.6582378 C119.171378,41.0453546 118.905522,40.431776 118.646653,39.8176545 L118.263,38.897 L118.042157,39.4762306 C113.40281,51.4134872 104.846143,60.0997511 92.3721558,65.5350224 C97.2445133,59.5880409 101.394107,52.6604321 104.820938,44.752196 C96.8439791,53.2579416 86.4732686,61.4910638 74.3415164,68.4953343 C61.9709782,75.6374678 49.4094417,80.555016 37.8702973,83.1739457 C35.4906508,85.3663074 34,88.5090737 34,92 L34,105 C34,111.018625 38.4308707,116.002364 44.2085808,116.867187 C45.9518066,137.114792 58.4692178,154.282984 76,162.610951 L76,172 L34,172 C29.581722,172 26,168.418278 26,164 L26.0005942,84.340338 C24.3242044,84.1977123 22.7583108,83.8833277 21.8534901,83.2731537 C18.6949619,81.1431718 17,77.0507583 17,72.5 C17,65.5964406 21.4771525,60 27,60 C33.8627142,25.8282542 63.9151011,0 100,0 Z M99.9855756,125.92152 L99.998,125.939 L100.010445,125.92152 C102.530993,122.597749 112.276508,121.191434 119.274279,122.464335 C128.927938,124.220722 133.019147,134.76698 131.780485,136.679101 C130.655476,138.415319 127.53642,136.773997 125.119711,136.629835 C120.118941,136.332255 110.948229,140.510287 102.046333,135.68915 C101.234748,135.249571 100.538634,134.60838 99.9975585,133.839069 C99.4573866,134.60838 98.7612729,135.249571 97.949688,135.68915 C89.0477917,140.510287 79.8767499,136.332255 74.8763101,136.629835 C72.459601,136.773997 69.3405442,138.415319 68.2155358,136.679101 C66.9768736,134.76698 71.0680827,124.220722 80.7214121,122.464335 C87.7195077,121.191434 97.4650271,122.597749 99.9855756,125.92152 Z" id="path-1"></path>
        <path d="M200,72.0517235 L200,81 L0,81 L0,72.0517235 C-4.39811009e-15,36.1384292 26.2938256,6.36638691 60.6806879,0.93638553 C61.5844961,6.00706952 64.1171239,10.8245023 68.2361251,14.5389794 L68.2361251,14.5389794 L97.3212035,40.7676333 C98.8433155,42.1402598 101.156684,42.1402598 102.678797,40.7676333 L102.678797,40.7676333 L131.763875,14.5389794 C132.189462,14.1551884 132.601167,13.7562772 132.998197,13.3430127 C136.413626,9.78792694 138.516642,5.45340984 139.319249,0.938570327 C173.706684,6.36696372 200,36.1387771 200,72.0517235 Z" id="path-3"></path>
    </defs>
    <g id="Page-1" stroke="none" stroke-width="1" fill="none" fill-rule="evenodd">
        <g id="Group-4">
            <g id="Group">
                <path d="M100,18 C130.927946,18 156,43.072054 156,74 L156.000809,80.1660527 C161.675838,81.1185422 166,86.05429 166,92 L166,105 C166,111.018777 161.568906,116.002616 155.790982,116.867253 C154.048207,137.114429 141.531251,154.282329 124.001014,162.610469 L124,181 L128,181 C167.764502,181 200,213.235498 200,253 L200,262 L0,262 L0,253 C-4.86974701e-15,213.235498 32.235498,181 72,181 L76,181 L75.9999836,162.610943 C58.4692242,154.28298 45.9518263,137.114813 44.208585,116.867236 C38.4310943,116.002616 34,111.018777 34,105 L34,92 C34,86.053942 38.3246685,81.1179645 44.0001873,80.1658855 L44,74 C44,43.072054 69.072054,18 100,18 Z" id="Combined-Shape" fill="#E6E6E6"></path>
                <mask id="mask-2" fill="white">
                    <use xlink:href="#path-1"></use>
                </mask>
                <use id="Combined-Shape" fill="#C1C1C1" xlink:href="#path-1"></use>
            </g>
            <g id="Group-3" transform="translate(0.000000, 181.000000)">
                <mask id="mask-4" fill="white">
                    <use xlink:href="#path-3"></use>
                </mask>
                <use id="Clothes" fill-opacity="0.3" fill="#C1C1C1" xlink:href="#path-3"></use>
            </g>
        </g>
    </g>
</svg>