<?xml version="1.0" encoding="UTF-8"?>
<svg width="200px" height="252px" viewBox="0 0 200 252" version="1.1" xmlns="http://www.w3.org/2000/svg" xmlns:xlink="http://www.w3.org/1999/xlink">
    <!-- Generator: Sketch 63.1 (92452) - https://sketch.com -->
    <title>Group 5</title>
    <desc>Created with Sketch.</desc>
    <defs>
        <path d="M124.001177,151.071017 C142.10124,153.096538 156,158.663704 156,173.076923 L155.994775,172.644551 C181.853089,183.567418 200,209.164232 200,238.999485 L200,248 L0,248 L0,238.999485 C-3.65381153e-15,209.163849 18.1473773,183.566761 44.0062213,172.644131 C44.2809798,158.551428 58.0819496,153.075891 75.9998249,151.070905 L76,170 C76,183.254834 86.745166,194 100,194 C113.254834,194 124,183.254834 124,170 L124,170 Z" id="path-1"></path>
        <path d="M100.504434,138.841039 C88.9930718,139.219142 83.8580835,144.721383 79.9909333,139.129621 C77.0884259,134.932355 78.3028943,127.873912 81.014944,123.902717 C84.8738581,118.251238 90.1088724,120.984777 95.9622738,120.340028 C97.5538829,120.164814 99.1526985,119.722841 100.504434,119 C101.856169,119.722841 103.454641,120.164814 105.04625,120.340028 C110.899995,120.984777 116.134666,118.251238 119.993923,123.902717 C122.70563,127.873912 123.920098,134.932355 121.017591,139.129621 C117.150441,144.721383 112.015796,138.462937 100.504434,138.841039 Z M156.39109,71 C152.966521,85.0748212 151.393023,99.4337754 148.909944,113.671147 C148.392536,116.639014 147.826063,119.596309 147.224594,122.54964 C147.098329,123.169776 146.973781,125.472575 146.362704,125.764306 C144.511632,126.648422 140.739149,121.946683 139.730409,120.88515 C137.196893,118.219256 134.684993,115.529244 131.599415,113.437233 C125.364783,109.21026 118.065485,106.710882 110.470084,106.117837 C107.292209,105.869386 102.995113,106.302523 100.000116,108.110402 C97.0051185,106.302523 92.7080229,105.869386 89.5298053,106.117837 C81.9344039,106.710882 74.6351055,109.21026 68.4004739,113.437233 C65.3148957,115.529244 62.8033387,118.219256 60.2694796,120.88515 C59.2607395,121.946683 55.4882573,126.648422 53.6371849,125.764306 C53.0261079,125.472575 52.9015594,123.169776 52.7752954,122.54964 C52.1738255,119.596309 51.6073527,116.639014 51.0899445,113.671147 C48.6072086,99.4337754 47.0337113,85.0748212 43.6091415,71 C42.6127533,71 41.7385119,89.7478165 41.6273446,91.4945731 C41.174784,98.5889755 40.6463963,105.525453 41.3216346,112.626133 C42.485803,124.874904 43.6993791,140.23394 53.032627,149.58753 C61.4659003,158.039493 73.7103052,159.806417 84.2713185,165.141327 C85.631059,165.828202 87.4347824,166.676306 89.3798667,167.37111 C91.4289129,168.934171 95.4926946,170 100.174072,170 C105.084647,170 109.315522,168.827456 111.254087,167.137856 C112.954878,166.49261 114.518082,165.752874 115.72857,165.141327 C126.288776,159.805245 138.533989,158.039493 146.967262,149.58753 C156.30051,140.23394 157.514086,124.874904 158.678597,112.626133 C159.353493,105.525453 158.825105,98.5889755 158.372887,91.4945731 C158.261377,89.7478165 157.387136,71 156.39109,71 Z" id="path-3"></path>
    </defs>
    <g id="Page-1" stroke="none" stroke-width="1" fill="none" fill-rule="evenodd">
        <g id="Group-5">
            <g id="Group-2">
                <path d="M100,8 C130.927946,8 156,33.072054 156,64 L156.000809,70.1660527 C161.675838,71.1185422 166,76.05429 166,82 L166,95 C166,101.018777 161.568906,106.002616 155.790982,106.867253 C154.048207,127.114429 141.531251,144.282329 124.001014,152.610469 L124,171 L128,171 C167.764502,171 200,203.235498 200,243 L200,252 L0,252 L0,243 C-4.86974701e-15,203.235498 32.235498,171 72,171 L76,171 L75.9999836,152.610943 C58.4692242,144.28298 45.9518263,127.114813 44.208585,106.867236 C38.4310943,106.002616 34,101.018777 34,95 L34,82 C34,76.053942 38.3246685,71.1179645 44.0001873,70.1658855 L44,64 C44,33.072054 69.072054,8 100,8 Z" id="Combined-Shape" fill="#E6E6E6"></path>
                <mask id="mask-2" fill="white">
                    <use xlink:href="#path-1"></use>
                </mask>
                <use id="Hoodie" fill="#B7C1DB" xlink:href="#path-1"></use>
                <g id="Color/Palette/Gray-01" mask="url(#mask-2)" fill="#E6E6E6">
                    <g transform="translate(-32.000000, 138.000000)" id="ðŸ–Color">
                        <rect x="0" y="0" width="264" height="110"></rect>
                    </g>
                </g>
                <path d="M69.9996178,199.738885 L70,248 L63,248 L62.9990839,196.149718 C65.2029904,197.459657 67.5461861,198.660514 69.9996178,199.738885 Z M137.001367,196.14945 L137,236.5 C137,238.432997 135.432997,240 133.5,240 C131.567003,240 130,238.432997 130,236.5 L130.001384,199.738445 C132.454619,198.660113 134.797629,197.459315 137.001367,196.14945 Z" id="Straps" fill="#F4F4F4" mask="url(#mask-2)"></path>
                <path d="M141.041065,150.72458 C156.091243,153.571479 166.5,159.243178 166.5,170.307692 C166.5,190.02001 133.462319,206 100,206 C66.5376807,206 33.5,190.02001 33.5,170.307692 C33.5,159.243178 43.908757,153.571479 58.9589345,150.72458 C49.8748056,154.074722 44,159.706273 44,169.076923 C44,189.468975 71.8212048,206 100,206 C128.178795,206 156,189.468975 156,169.076923 C156,159.9005 150.366206,154.30978 141.60124,150.935857 Z" id="Shadow" fill-opacity="0.16" fill="#000000" mask="url(#mask-2)"></path>
                <mask id="mask-4" fill="white">
                    <use xlink:href="#path-3"></use>
                </mask>
                <use id="Beardness" fill="#C1C1C1" xlink:href="#path-3"></use>
                <path d="M164.746912,14.7092 C159.606207,10.8774309 153.528335,7.59267946 147.187845,6.33129786 C140.740987,5.04908064 136.829344,4.73764815 130.483238,6.25831743 C128.850382,6.649564 128.29938,7.03849551 126.862083,6.10982232 C125.651398,5.32732917 117.200086,-3.38010221 91.44169,1.45289669 C65.4068984,6.33775509 57.6727731,45.528384 48.0153686,47.0192881 C44.5349371,47.556384 40.233618,46.634656 40.0991708,44.4918947 C36.1354562,50.5256247 35.0912607,58.4990513 36.7716855,65.5659632 C38.2185619,71.6519476 41.2685641,77.3704975 46.7607484,80.7025425 C51.4865506,83.5699202 58.0202877,84.819065 63.4817506,84.2902372 C65.9668765,84.0498008 68.2270428,83.5265953 70.513636,82.5241707 C73.2726113,81.3147127 75.4706742,79.1332568 78.1777866,77.9810141 C75.3514225,80.4290337 72.2753237,82.5883311 69.0016832,84.3993761 C67.3625506,85.3058908 65.6979821,85.9306286 63.8887259,86.4230767 C62.6532652,86.7590924 60.1275079,87.9040591 58.9326787,87.6050846 C66.7401956,89.0014016 74.0931686,87.7846677 81.2522338,84.4423703 C84.4832607,82.9342685 87.5907416,81.1099945 90.4432023,78.9655797 C93.2761731,76.8357166 96.5375911,74.6592215 98.7538225,71.8566658 C97.8235933,73.0601707 99.4508338,71.2699613 99.6658832,71.0510219 C100.274034,70.431245 100.869301,69.7989006 101.453007,69.155973 C102.45525,68.0523468 103.450555,66.9282157 104.383757,65.7650591 C106.377672,63.279337 108.234827,60.6828223 109.891137,57.9616247 C111.568589,55.205701 118.249656,44.0887421 120.266364,41.4720532 C118.36131,47.18002 116.286463,52.8903018 113.858816,58.397519 C118.572396,56.9274505 123.142609,52.8532607 126.153962,49.0565483 C129.545863,44.7806168 131.554643,39.7889984 132.262225,34.3909202 C136.087528,44.806744 145.047261,53.0206071 154.294387,58.6859104 C152.290892,54.9556736 149.238578,51.8008967 147.24202,48.0078223 C156.432989,57.3368869 171.80985,61.9012098 175.837319,75.5819417 C176.869623,70.8244759 180.189841,67.0013057 181.184485,62.1485914 C182.288802,56.7601041 183.081281,51.0399006 182.905872,45.5326834 C182.508476,33.2909319 174.273834,21.8105073 164.746912,14.7092 Z" id="Shaggy-Hair" fill="#C1C1C1" transform="translate(109.465113, 44.087177) scale(-1, 1) translate(-109.465113, -44.087177) "></path>
            </g>
        </g>
    </g>
</svg>