<?xml version="1.0" encoding="UTF-8"?>
<svg width="469px" height="77px" viewBox="0 0 469 77" version="1.1" xmlns="http://www.w3.org/2000/svg" xmlns:xlink="http://www.w3.org/1999/xlink">
    <!-- Generator: Sketch 49.3 (51167) - http://www.bohemiancoding.com/sketch -->
    <title>Group</title>
    <desc>Created with Sketch.</desc>
    <defs></defs>
    <g id="Page-1" stroke="none" stroke-width="1" fill="none" fill-rule="evenodd">
        <g id="Artboard-4" transform="translate(-516.000000, -202.000000)">
            <g id="Group" transform="translate(516.000000, 197.000000)">
                <text id="ROCKBURG" font-family="AlmaMono-Heavy, Alma Mono" font-size="72" font-weight="600" fill="#F7FFF7">
                    <tspan x="70.8" y="68">ROCKBURG</tspan>
                </text>
                <g id="Page-1" transform="translate(0.000000, 5.000000)" fill="#FFE66D">
                    <path d="M21,36.9894 C19.62975,38.2521 18.75,40.0622 18.75,42.1 C18.75,43.8319 19.39575,45.3936 20.42625,46.6057 C19.659,48.0248 18.19875,49 16.5,49 C14.016,49 12,46.9392 12,44.4 L12,30.6 C12,29.9261 12.1485,29.289 12.405,28.7117 C13.1115,27.1155 14.673,26 16.5,26 C18.984,26 21,28.0585 21,30.6 L21,32.9 L21,36.9894 Z" id="Fill-3"></path>
                    <path d="M0,11.6666667 C0,9.09066667 2.07829332,7 4.63904759,7 C7.19980185,7 9.27809517,9.09066667 9.27809517,11.6666667 L9.27809517,32.6666667 L9.27809517,37.3333333 L9.27809517,44.3333333 C9.27809517,45.8686667 9.78143184,47.278 10.6187799,48.4236667 C10.6814071,48.51 10.7602709,48.5823333 10.8252175,48.6616667 C11.066448,48.9626667 11.3123175,49.2566667 11.5952994,49.5156667 C11.6718437,49.5786667 11.7460685,49.6416667 11.8272518,49.707 C12.1032752,49.9356667 12.3908961,50.1456667 12.7017123,50.3323333 C12.8548009,50.4233333 13.0055699,50.5073333 13.1679366,50.5866667 C13.4903504,50.7476667 13.8290009,50.8783333 14.1769294,50.988 C14.334657,51.0346667 14.480787,51.093 14.6408342,51.1303333 C15.1557685,51.254 15.6869394,51.3333333 16.2366666,51.3333333 C16.7840742,51.3333333 17.305967,51.2493333 17.8162623,51.1256667 C17.9925461,51.086 18.1595518,51.0276667 18.3311965,50.9716667 C18.6489713,50.869 18.9551484,50.7406667 19.249728,50.596 C19.4399289,50.5026667 19.6278103,50.4163333 19.8064137,50.3066667 C20.1868156,50.0733333 20.5440222,49.8096667 20.8733946,49.511 C21.3419384,49.0816667 21.7640918,48.608 22.1027422,48.069 L22.0957837,48.062 C22.5643275,48.3303333 23.1952379,49 25.5147617,49 L31.3993936,49 C27.2056946,52.185 24.3549998,58.31 24.3549998,65.3333333 C24.3549998,65.9773333 24.8745732,66.5 25.5147617,66.5 C26.1549503,66.5 26.6745236,65.9773333 26.6745236,65.3333333 C26.6745236,56.329 31.7473222,49 37.9822021,49 L38.2721426,49 C38.9123312,49 39.4319045,48.4773333 39.4319045,47.8333333 C39.4319045,47.1893333 38.9123312,46.6666667 38.2721426,46.6666667 L34.7928569,46.6666667 L25.5147617,46.6666667 C22.9540075,46.6666667 20.8757141,44.576 20.8757141,42 C20.8757141,39.424 22.9540075,37.3333333 25.5147617,37.3333333 L44.0709521,37.3333333 C46.3162511,37.3333333 47.5061668,38.724 48.0721306,39.7016667 C48.3667101,40.2056667 48.498923,40.6093333 48.5082011,40.635 L51.0295234,49 C51.2684344,49.7816667 52.1405753,53.3656667 51.9805282,54.1123333 C51.9805282,65.3333333 41.090364,77 27.8342855,77 C12.6715585,77 0,64.75 0,49 C0.0185561903,49.0163333 0,11.6666667 0,11.6666667" id="Fill-5"></path>
                    <path d="M32,34.5740741 L25.25,34.5740741 C24.45575,34.5740741 23.7065,34.7407407 23,35 L23,32.2592593 L23,27.6296296 C23,26.9513889 23.1485,26.3125 23.405,25.7314815 C24.1115,24.1226852 25.673,23 27.5,23 C29.984,23 32,25.0740741 32,27.6296296 L32,32.2592593 L32,34.5740741 Z" id="Fill-7"></path>
                    <path d="M35,35 L35,4.66666667 C35,3.983 35.1485,3.339 35.405,2.75333333 C36.10925,1.13166667 37.673,0 39.5,0 C41.984,0 44,2.09066667 44,4.66666667 L44,32.6666667 L44,35 L41.75,35 L35,35 Z" id="Fill-9"></path>
                </g>
            </g>
        </g>
    </g>
</svg>